<svg xmlns="http://www.w3.org/2000/svg" viewBox="0 0 750 471" width="750" height="471">
  <rect width="750" height="471" rx="40" fill="#1A1F71"/>
  <path d="M278.198 334.228l33.36-195.763h53.358l-33.384 195.763H278.198zm246.11-191.54c-10.57-3.966-27.135-8.222-47.822-8.222-52.725 0-89.863 26.55-90.18 64.604-.317 28.13 26.508 43.822 46.754 53.185 20.77 9.597 27.752 15.716 27.652 24.283-.133 13.123-16.583 19.116-31.924 19.116-21.355 0-32.701-2.967-50.225-10.274l-6.878-3.11-7.487 43.822c12.463 5.467 35.508 10.2 59.438 10.45 56.09 0 92.502-26.248 92.916-66.884.2-22.27-14.016-39.216-44.802-53.188-18.65-9.056-30.072-15.099-29.952-24.269 0-8.137 9.668-16.838 30.56-16.838 17.443-.271 30.088 3.522 39.937 7.484l4.782 2.26 7.233-42.42m137.307-4.222h-41.23c-12.772 0-22.332 3.486-27.94 16.234l-79.245 179.404h56.032s9.159-24.121 11.232-29.418c6.124 0 60.555.084 68.336.084 1.596 6.854 6.492 29.334 6.492 29.334h49.52l-43.197-195.638zm-65.418 126.408c4.414-11.279 21.26-54.724 21.26-54.724-.316.522 4.38-11.334 7.074-18.684l3.606 16.878s10.217 46.729 12.353 56.527h-44.293v.003zM209.75 138.465l-52.239 133.496-5.565-27.13c-9.726-31.274-40.025-65.156-73.898-82.12l47.767 171.204 56.455-.064 84.004-195.386h-56.524" fill="#fff"/>
  <path d="M146.922 138.465H60.879l-.682 4.073c66.939 16.204 111.232 55.363 129.618 102.415l-18.71-89.96c-3.229-12.396-12.597-16.096-24.183-16.528" fill="#F9A533"/>
</svg>
