<svg width="340" height="139" viewBox="0 0 340 139" fill="none" xmlns="http://www.w3.org/2000/svg">
<path d="M214.14 15.9H198.49V94.39H214.14V15.9Z" fill="black"/>
<path d="M281.93 65.3C281.74 49.2 268.64 36.21 252.5 36.21C236.36 36.21 223.06 49.39 223.06 65.65C223.06 81.91 236.24 95.09 252.5 95.09C257.48 95.09 262.17 93.85 266.29 91.67V94.39H281.94V65.3H281.93ZM252.5 79.44C244.89 79.44 238.71 73.27 238.71 65.65C238.71 58.03 244.88 51.86 252.5 51.86C260.12 51.86 266.29 58.03 266.29 65.65C266.29 73.27 260.12 79.44 252.5 79.44Z" fill="black"/>
<path d="M123.88 65.3C123.69 49.2 110.59 36.21 94.4502 36.21C78.3102 36.21 65.01 49.39 65.01 65.65C65.01 81.91 78.1902 95.09 94.4502 95.09C99.4302 95.09 104.12 93.85 108.24 91.67V94.39H123.89V65.3H123.88ZM94.4502 79.44C86.8402 79.44 80.6602 73.27 80.6602 65.65C80.6602 58.03 86.8302 51.86 94.4502 51.86C102.07 51.86 108.24 58.03 108.24 65.65C108.24 73.27 102.07 79.44 94.4502 79.44Z" fill="black"/>
<path d="M29.4402 36.21C24.4602 36.21 19.7701 37.45 15.6501 39.63V15.89H0V65.99C0.19 82.09 13.2902 95.08 29.4302 95.08C45.5702 95.08 58.8701 81.9 58.8701 65.64C58.8701 49.38 45.6902 36.2 29.4302 36.2L29.4402 36.21ZM29.4402 79.44C21.8302 79.44 15.6501 73.27 15.6501 65.65C15.6501 58.03 21.8202 51.86 29.4402 51.86C37.0602 51.86 43.23 58.03 43.23 65.65C43.23 73.27 37.0602 79.44 29.4402 79.44Z" fill="black"/>
<path d="M309.11 75.4C303.73 70.02 303.73 61.29 309.11 55.9C314.49 50.52 323.22 50.52 328.61 55.9L339.68 44.83C328.18 33.33 309.54 33.33 298.05 44.83C286.55 56.33 286.55 74.97 298.05 86.46C309.55 97.96 328.19 97.96 339.68 86.46L328.61 75.39C323.23 80.77 314.5 80.77 309.11 75.39V75.4Z" fill="black"/>
<path d="M171.03 30.68C174.73 23.4 179.55 16.79 185.27 11.07L174.2 0C165.72 8.48 158.89 18.59 154.18 29.82C156.33 29.43 158.53 29.21 160.79 29.21C164.34 29.21 167.77 29.73 171.02 30.68H171.03Z" fill="black"/>
<path d="M308.66 100.65C304.96 107.91 300.15 114.52 294.44 120.22L305.51 131.29C313.98 122.82 320.82 112.71 325.52 101.49C323.36 101.89 321.14 102.11 318.87 102.11C315.33 102.11 311.91 101.59 308.67 100.65H308.66Z" fill="black"/>
<path d="M190.24 65.3C190.05 49.2 176.95 36.21 160.81 36.21C144.67 36.21 131.37 49.39 131.37 65.65C131.37 81.91 144.55 95.09 160.81 95.09C165.79 95.09 170.48 93.85 174.6 91.67V108.89C174.6 116.5 168.42 122.66 160.81 122.66C153.2 122.66 147.02 116.49 147.02 108.87C147.02 105.67 148.12 102.72 149.95 100.38C144.83 98.78 140.19 96.08 136.32 92.55C133.2 97.22 131.37 102.84 131.37 108.89C131.37 125.15 144.55 138.33 160.81 138.33C177.07 138.33 190.25 125.15 190.25 108.89V65.3H190.24ZM160.81 79.44C153.2 79.44 147.02 73.27 147.02 65.65C147.02 58.03 153.19 51.86 160.81 51.86C168.43 51.86 174.6 58.03 174.6 65.65C174.6 73.27 168.43 79.44 160.81 79.44Z" fill="black"/>
</svg>
